<svg width="35" height="35" viewBox="0 0 35 35" fill="none" xmlns="http://www.w3.org/2000/svg">
<g id="barchart-icon">
    <path  id="border" d="M9.37499 31.125H25.625C28.6626 31.125 31.125 28.6626 31.125 25.625V9.37502C31.125 6.33745 28.6626 3.87502 25.625 3.87502H9.37499C6.33743 3.87502 3.87499 6.33745 3.87499 9.37502V25.625C3.87499 28.6626 6.33743 31.125 9.37499 31.125Z M4.37499 1.12502H30.625C32.4114 1.12502 33.875 2.58866 33.875 4.37502V30.625C33.875 32.4114 32.4114 33.875 30.625 33.875H4.37499C2.58863 33.875 1.12499 32.4114 1.12499 30.625V4.37502C1.12499 2.58866 2.58863 1.12502 4.37499 1.12502Z" fill="#1D3557" />
    <path id="bar-1" d="M11.375 15.625V25C11.375 25.7594 10.7594 26.375 9.99999 26.375C9.2406 26.375 8.62499 25.7594 8.62499 25V15.625C8.62499 14.8656 9.2406 14.25 9.99999 14.25C10.7594 14.25 11.375 14.8656 11.375 15.625Z"  stroke="#1D3557" />
    <path id='bar-2' d="M18.875 10V25C18.875 25.7594 18.2594 26.375 17.5 26.375C16.7406 26.375 16.125 25.7594 16.125 25V17.5V10C16.125 9.24062 16.7406 8.62502 17.5 8.62502C18.2594 8.62502 18.875 9.24062 18.875 10Z"  stroke="#1D3557"/>
    <path id="bar-3" d="M26.375 21.25V25C26.375 25.7594 25.7594 26.375 25 26.375C24.2406 26.375 23.625 25.7594 23.625 25V21.25C23.625 20.4906 24.2406 19.875 25 19.875C25.7594 19.875 26.375 20.4906 26.375 21.25Z"  stroke="#1D3557" />
</g>
</svg>
