<svg class="calculator-icon" width="35" height="35" viewBox="0 0 35 35" fill="none" xmlns="http://www.w3.org/2000/svg">
<g>
<g id="Group" >
<path id="Vector" d="M30.625 8.125H11.875C9.8125 8.125 8.125 9.8125 8.125 11.875V30.625C8.125 32.6875 9.8125 34.375 11.875 34.375H30.625C32.6875 34.375 34.375 32.6875 34.375 30.625V11.875C34.375 9.8125 32.6875 8.125 30.625 8.125ZM30.625 11.875V15.625H11.875V11.875H30.625ZM19.375 23.125V19.375H23.125V23.125H19.375ZM23.125 26.875V30.625H19.375V26.875H23.125ZM15.625 23.125H11.875V19.375H15.625V23.125ZM26.875 19.375H30.625V23.125H26.875V19.375ZM11.875 26.875H15.625V30.625H11.875V26.875ZM26.875 30.625V26.875H30.625V30.625H26.875ZM6.25 26.875H4.375C2.3125 26.875 0.625 25.1875 0.625 23.125V4.375C0.625 2.3125 2.3125 0.625 4.375 0.625H23.125C25.1875 0.625 26.875 2.3125 26.875 4.375V6.25H23.125V4.375H4.375V23.125H6.25V26.875Z" fill="#1D3557"/>
</g>
<rect id="screen" x="11" y="11" width="20" height="5" rx="1" fill="#D9D9D9"/>

<rect id="Rectangle 2" class="button" x="11" y="19" width="5" height="5" rx="1" fill="#D9D9D9"/>
<rect id="Rectangle 7" class="button" x="26" y="26" width="5" height="5" rx="1" fill="#DADADA"/>
<rect id="Rectangle 6" class="button" x="19" y="26" width="5" height="5" rx="1" fill="#D9D9D9"/>
<path id="Rectangle 5" class="button" d="M11 27C11 26.4477 11.4477 26 12 26H15C15.5523 26 16 26.4477 16 27V30C16 30.5523 15.5523 31 15 31H12C11.4477 31 11 30.5523 11 30V27Z" fill="#D9D9D9"/>
<path id="Rectangle 3" class="button" d="M19 20C19 19.4477 19.4477 19 20 19H23C23.5523 19 24 19.4477 24 20V23C24 23.5523 23.5523 24 23 24H20C19.4477 24 19 23.5523 19 23V20Z" fill="#D9D9D9"/>
<rect id="Rectangle 4" class="button" x="26" y="19" width="5" height="5" rx="1" fill="#D9D9D9"/>
</g>
</svg>
