<svg width="45" height="45" viewBox="0 0 63 63" fill="none" xmlns="http://www.w3.org/2000/svg">
<g class='icon' id="cleaning-service-icon" clip-path="url(#clip0_9_3979)">
<g id="Group">
<g id="Group_2">
<path id="Vector" d="M38.7297 34.2381L37.1896 33.1686L45.746 20.8483C46.9225 19.1543 46.4991 16.8057 44.805 15.6292L41.725 13.4901C40.0309 12.3136 37.6823 12.737 36.5058 14.4311L27.9494 26.7513L26.4094 25.6818C22.1589 22.7298 16.3135 23.7837 13.3615 28.0342L5.8747 38.8144L33.5952 58.0662L41.0821 47.286C44.034 43.0355 42.9801 37.1901 38.7297 34.2381ZM39.5859 16.5702L42.6659 18.7092L34.1096 31.0295L31.0295 28.8904L39.5859 16.5702ZM32.6543 52.8471L29.5742 50.708L32.7829 46.0879C33.3711 45.2409 33.1594 44.0666 32.3124 43.4783C31.4654 42.8901 30.291 43.1018 29.7028 43.9488L26.4942 48.5689L23.4141 46.4298L26.6227 41.8097C27.211 40.9627 26.9993 39.7884 26.1523 39.2001C25.3052 38.6119 24.1309 38.8236 23.5427 39.6706L20.334 44.2907L17.254 42.1516L20.4626 37.5315C21.0509 36.6845 20.8391 35.5102 19.9921 34.9219C19.1451 34.3337 17.9708 34.5454 17.3826 35.3924L14.1739 40.0125L11.0939 37.8734L16.4416 30.1733C18.2063 27.6322 21.7293 26.9971 24.2703 28.7618L36.5906 37.3182C39.1316 39.0829 39.7668 42.6059 38.002 45.1469L32.6543 52.8471Z"/>
</g>
</g>
</g>
<defs>
<clipPath id="clip0_9_3979">
<rect width="45" height="45" fill="white" transform="translate(25.8542 0.185059) rotate(34.7799)"/>
</clipPath>
</defs>
</svg>
