<svg id="cloud-arrow-up" viewBox="0 0 76 47" fill="none" xmlns="http://www.w3.org/2000/svg">
<g>
<path id="arrow"  d="M36.3185 14.2272C36.5391 14.0352 36.8012 13.8828 37.0897 13.7788C37.3783 13.6748 37.6876 13.6213 38 13.6213C38.3124 13.6213 38.6217 13.6748 38.9103 13.7788C39.1988 13.8828 39.4609 14.0352 39.6815 14.2272L49.1815 22.4772C49.4023 22.669 49.5775 22.8967 49.697 23.1472C49.8165 23.3978 49.878 23.6663 49.878 23.9375C49.878 24.2087 49.8165 24.4772 49.697 24.7278C49.5775 24.9783 49.4023 25.206 49.1815 25.3977C48.9607 25.5895 48.6985 25.7416 48.41 25.8454C48.1215 25.9492 47.8123 26.0026 47.5 26.0026C47.1877 26.0026 46.8785 25.9492 46.59 25.8454C46.3015 25.7416 46.0393 25.5895 45.8185 25.3977L40.375 20.6664V36.3125C40.375 36.8595 40.1248 37.3841 39.6794 37.7709C39.234 38.1577 38.6299 38.375 38 38.375C37.3701 38.375 36.766 38.1577 36.3206 37.7709C35.8752 37.3841 35.625 36.8595 35.625 36.3125V20.6664L30.1815 25.3977C29.7355 25.785 29.1307 26.0026 28.5 26.0026C27.8693 26.0026 27.2645 25.785 26.8185 25.3977C26.3725 25.0105 26.122 24.4852 26.122 23.9375C26.122 23.3898 26.3725 22.8645 26.8185 22.4772L36.3185 14.2272Z" fill="black"/>
<path id="cloud" stroke="#000000" d="M20.9285 6.78575C25.676 3.23056 31.7312 1.26707 38 1.25C50.7775 1.25 61.3843 9.5 62.5385 20.1384C70.1005 21.0665 76 26.5651 76 33.3136C76 40.7221 68.8845 46.625 60.2633 46.625H17.9597C8.113 46.625 0 39.8847 0 31.4367C0 24.1644 6.0135 18.1419 13.9745 16.6156C14.6537 13.0557 17.29 9.50825 20.9285 6.78575ZM24.0303 9.90837C20.4345 12.602 18.5535 15.8484 18.5535 18.3894V20.2374L16.4397 20.4395C9.804 21.0706 4.75 25.802 4.75 31.4367C4.75 37.4881 10.5925 42.5 17.9597 42.5H60.2633C66.405 42.5 71.25 38.3255 71.25 33.3136C71.25 28.2976 66.405 24.1231 60.2633 24.1231H57.8883V22.0606C57.893 12.9031 49.058 5.375 38 5.375C32.8694 5.3928 27.915 6.99791 24.0303 9.90837Z"/>
</g>
</svg>
